<svg xmlns="http://www.w3.org/2000/svg" version="1.1" viewBox="-50 -50 200 200">
 <circle cx="50" cy="50" r="80" fill="white" fill-opacity="0.7"/>
 <path d="m55.164 13.203-26.973 17.676h-22.895c-2.9219 0-5.2969 2.3789-5.2969 5.3008v27.57c0 2.9219 2.375 5.2969 5.2969 5.2969h22.59l27.297 17.727c3.5703 2.6133 9.0117-0.26172 8.8672-4.6797v-64.223c0.003907-2.4102-2.7266-7.8477-8.8867-4.668zm-51.066 50.547v-27.57c0-0.66016 0.53906-1.1992 1.1992-1.1992h21.406v29.969h-21.406c-0.66016 0-1.1992-0.53906-1.1992-1.1992zm55.855 18.344c-0.11719 1.3984-1.3203 1.9961-2.5117 1.2578l-26.637-17.297-0.003907-31.984 26.633-17.453c1.1914-0.74609 2.3984-0.15234 2.5195 1.2539z"/>
 <path d="m80 16.766c-1.043-0.4375-2.2461 0.054687-2.6797 1.1016-0.4375 1.043 0.054688 2.2461 1.1016 2.6797 10.527 4.4023 17.555 15 17.48 26.367v0.027344c0.074218 11.371-6.9531 21.969-17.48 26.367-1.043 0.4375-1.5352 1.6367-1.1016 2.6797 0.4375 1.0547 1.6641 1.5352 2.6797 1.1016 12.043-5.0312 20.078-17.152 20-30.164 0.078125-13.008-7.957-25.129-20-30.16z"/>
 <path d="m85.863 46.93c0.046875-8.0234-4.9102-15.496-12.332-18.598-1.043-0.4375-2.2461 0.054688-2.6797 1.1016-0.4375 1.043 0.054688 2.2461 1.1016 2.6797 5.9102 2.4727 9.8555 8.4219 9.8164 14.805v0.027343c0.042969 6.3828-3.9023 12.332-9.8164 14.805-1.043 0.4375-1.5352 1.6367-1.1016 2.6797 0.4375 1.0547 1.6641 1.5352 2.6797 1.1016 7.4219-3.1094 12.379-10.582 12.332-18.602z"/>
</svg>
