<svg xmlns="http://www.w3.org/2000/svg" xmlns:xlink="http://www.w3.org/1999/xlink" version="1.1" x="0px" y="0px" viewBox="100 140 824 800"><path d="M512,875.32c-45.8,0-90.24-8.97-132.09-26.68c-40.41-17.09-76.7-41.56-107.85-72.71s-55.62-67.44-72.71-107.85    c-17.7-41.85-26.68-86.29-26.68-132.09h45c0,162.29,132.04,294.33,294.33,294.33s294.33-132.04,294.33-294.33    S674.29,241.66,512,241.66c-97.93,0-189.17,48.52-244.08,129.79l-37.29-25.19C293.92,252.58,399.1,196.66,512,196.66    c45.8,0,90.24,8.98,132.09,26.68c40.41,17.09,76.7,41.56,107.85,72.71c31.16,31.16,55.62,67.44,72.71,107.85    c17.7,41.85,26.68,86.29,26.68,132.09c0,45.8-8.97,90.24-26.68,132.09c-17.09,40.41-41.56,76.7-72.71,107.85    s-67.44,55.62-107.85,72.71C602.24,866.35,557.8,875.32,512,875.32z"/><polygon points="433.36,392.83 211.71,392.83 211.71,171.18 256.71,171.18 256.71,347.83 433.36,347.83   "/></svg>
